<?xml version="1.0" encoding="UTF-8"?>
<svg version="1.1" xmlns="http://www.w3.org/2000/svg" width="512" height="512">
<path d="M0 0 C32.013306 27.83983834 53.16270979 67.29510499 57.42919922 109.66357422 C57.55068826 112.39799923 57.63816389 115.10864416 57.66748047 117.84326172 C57.67731964 118.60484589 57.68715881 119.36643005 57.69729614 120.15109253 C58.13967547 163.36996288 48.01773096 202.69843555 29.42919922 241.66357422 C29.01299316 242.53981445 28.59678711 243.41605469 28.16796875 244.31884766 C11.47273739 279.21734783 -10.3252288 311.57317256 -34.57080078 341.66357422 C-35.31716797 342.59298828 -36.06353516 343.52240234 -36.83251953 344.47998047 C-45.52178284 355.19725855 -54.51033601 365.64347724 -63.90283203 375.74951172 C-65.88372937 377.91312726 -67.81280566 380.09548757 -69.72729492 382.31616211 C-75.78499346 389.24657617 -82.30424206 395.73670166 -88.77783203 402.27563477 C-90.3996453 403.91922723 -92.01515261 405.56906436 -93.62451172 407.22485352 C-95.95957377 409.62646247 -98.31340879 412.00811454 -100.67236328 414.38623047 C-101.39017975 415.13187759 -102.10799622 415.87752472 -102.8475647 416.64576721 C-103.52531952 417.32074753 -104.20307434 417.99572784 -104.90136719 418.69116211 C-105.49092194 419.29102432 -106.08047668 419.89088654 -106.68789673 420.50892639 C-108.57080078 421.66357422 -108.57080078 421.66357422 -111.04211426 421.57800293 C-114.01058486 420.50453861 -115.48079209 419.24273731 -117.69921875 417.00512695 C-118.47707733 416.23019394 -119.25493591 415.45526093 -120.05636597 414.65684509 C-120.88355133 413.81215164 -121.71073669 412.96745819 -122.56298828 412.09716797 C-123.42715363 411.22971451 -124.29131897 410.36226105 -125.18167114 409.46852112 C-127.94584612 406.68858515 -130.69558358 403.89481208 -133.44580078 401.10107422 C-135.28998731 399.24539592 -137.13503008 397.39056813 -138.98095703 395.53662109 C-140.75907186 393.74506835 -142.53643965 391.95277381 -144.31298828 390.15966797 C-145.54769363 388.91388222 -145.54769363 388.91388222 -146.80734253 387.64292908 C-151.57811665 382.79406658 -156.13763906 377.82144363 -160.57080078 372.66357422 C-162.02525595 371.05589049 -163.48300973 369.45117707 -164.94580078 367.85107422 C-169.67695423 362.60220196 -174.12956864 357.15795346 -178.57080078 351.66357422 C-179.58162846 350.43237335 -180.59340127 349.20194804 -181.60595703 347.97216797 C-228.52383842 290.86644422 -278.30901278 215.76237886 -278.77392578 139.14013672 C-278.78094009 138.36042007 -278.78795441 137.58070343 -278.79518127 136.77735901 C-278.81255814 134.28103779 -278.81903143 131.78495365 -278.82080078 129.28857422 C-278.82147552 128.43631256 -278.82215027 127.5840509 -278.82284546 126.70596313 C-278.80744278 114.4798322 -278.59774888 102.57815717 -275.57080078 90.66357422 C-275.39387695 89.95620117 -275.21695313 89.24882812 -275.03466797 88.52001953 C-273.740077 83.50040517 -272.2210042 78.57665319 -270.57080078 73.66357422 C-270.35053223 72.9976123 -270.13026367 72.33165039 -269.90332031 71.64550781 C-262.13906133 48.5331639 -248.94168102 28.5802028 -232.57080078 10.66357422 C-231.82314453 9.84373047 -231.07548828 9.02388672 -230.30517578 8.17919922 C-205.35754043 -17.87721993 -170.84052076 -33.63585476 -135.57080078 -39.33642578 C-133.87697266 -39.61099609 -133.87697266 -39.61099609 -132.14892578 -39.89111328 C-84.08356264 -45.59758215 -36.73811596 -31.25651955 0 0 Z " fill="#EEEDED" transform="translate(366.57080078125,66.33642578125)"/>
<path d="M0 0 C32.013306 27.83983834 53.16270979 67.29510499 57.42919922 109.66357422 C57.55068826 112.39799923 57.63816389 115.10864416 57.66748047 117.84326172 C57.67731964 118.60484589 57.68715881 119.36643005 57.69729614 120.15109253 C58.13967547 163.36996288 48.01773096 202.69843555 29.42919922 241.66357422 C29.01299316 242.53981445 28.59678711 243.41605469 28.16796875 244.31884766 C11.47273739 279.21734783 -10.3252288 311.57317256 -34.57080078 341.66357422 C-35.31716797 342.59298828 -36.06353516 343.52240234 -36.83251953 344.47998047 C-45.52178284 355.19725855 -54.51033601 365.64347724 -63.90283203 375.74951172 C-65.88372937 377.91312726 -67.81280566 380.09548757 -69.72729492 382.31616211 C-75.78499346 389.24657617 -82.30424206 395.73670166 -88.77783203 402.27563477 C-90.3996453 403.91922723 -92.01515261 405.56906436 -93.62451172 407.22485352 C-95.95957377 409.62646247 -98.31340879 412.00811454 -100.67236328 414.38623047 C-101.39017975 415.13187759 -102.10799622 415.87752472 -102.8475647 416.64576721 C-103.52531952 417.32074753 -104.20307434 417.99572784 -104.90136719 418.69116211 C-105.49092194 419.29102432 -106.08047668 419.89088654 -106.68789673 420.50892639 C-108.57080078 421.66357422 -108.57080078 421.66357422 -111.04211426 421.57800293 C-114.01058486 420.50453861 -115.48079209 419.24273731 -117.69921875 417.00512695 C-118.47707733 416.23019394 -119.25493591 415.45526093 -120.05636597 414.65684509 C-120.88355133 413.81215164 -121.71073669 412.96745819 -122.56298828 412.09716797 C-123.42715363 411.22971451 -124.29131897 410.36226105 -125.18167114 409.46852112 C-127.94584612 406.68858515 -130.69558358 403.89481208 -133.44580078 401.10107422 C-135.28998731 399.24539592 -137.13503008 397.39056813 -138.98095703 395.53662109 C-140.75907186 393.74506835 -142.53643965 391.95277381 -144.31298828 390.15966797 C-145.54769363 388.91388222 -145.54769363 388.91388222 -146.80734253 387.64292908 C-151.57811665 382.79406658 -156.13763906 377.82144363 -160.57080078 372.66357422 C-162.02525595 371.05589049 -163.48300973 369.45117707 -164.94580078 367.85107422 C-169.67695423 362.60220196 -174.12956864 357.15795346 -178.57080078 351.66357422 C-179.58162846 350.43237335 -180.59340127 349.20194804 -181.60595703 347.97216797 C-228.52383842 290.86644422 -278.30901278 215.76237886 -278.77392578 139.14013672 C-278.78094009 138.36042007 -278.78795441 137.58070343 -278.79518127 136.77735901 C-278.81255814 134.28103779 -278.81903143 131.78495365 -278.82080078 129.28857422 C-278.82147552 128.43631256 -278.82215027 127.5840509 -278.82284546 126.70596313 C-278.80744278 114.4798322 -278.59774888 102.57815717 -275.57080078 90.66357422 C-275.39387695 89.95620117 -275.21695313 89.24882812 -275.03466797 88.52001953 C-273.740077 83.50040517 -272.2210042 78.57665319 -270.57080078 73.66357422 C-270.35053223 72.9976123 -270.13026367 72.33165039 -269.90332031 71.64550781 C-262.13906133 48.5331639 -248.94168102 28.5802028 -232.57080078 10.66357422 C-231.82314453 9.84373047 -231.07548828 9.02388672 -230.30517578 8.17919922 C-205.35754043 -17.87721993 -170.84052076 -33.63585476 -135.57080078 -39.33642578 C-133.87697266 -39.61099609 -133.87697266 -39.61099609 -132.14892578 -39.89111328 C-84.08356264 -45.59758215 -36.73811596 -31.25651955 0 0 Z M-140.57080078 -7.33642578 C-141.78638672 -7.05798828 -143.00197266 -6.77955078 -144.25439453 -6.49267578 C-178.38126995 1.74607042 -208.61512801 24.62992778 -226.94873047 54.38452148 C-234.01239983 66.22499025 -239.28726426 78.24251717 -242.57080078 91.66357422 C-242.85697266 92.74896484 -243.14314453 93.83435547 -243.43798828 94.95263672 C-252.10727631 128.22618981 -245.21132622 165.03847899 -228.27954102 194.6003418 C-224.24813725 201.4172352 -219.78378444 207.68817978 -214.57080078 213.66357422 C-213.77287109 214.60587891 -212.97494141 215.54818359 -212.15283203 216.51904297 C-195.01881735 236.31834882 -170.97374633 251.24395783 -145.57080078 257.66357422 C-144.86922852 257.84549316 -144.16765625 258.02741211 -143.44482422 258.21484375 C-109.73745246 266.72440858 -72.50982358 261.37463742 -42.39111328 244.00341797 C-9.37955856 224.11141241 12.47184263 193.78160769 22.42919922 156.66357422 C22.91066406 154.92720703 22.91066406 154.92720703 23.40185547 153.15576172 C28.07872803 133.01258036 27.01113 110.49751808 21.42919922 90.66357422 C21.12369141 89.53701416 21.12369141 89.53701416 20.81201172 88.38769531 C11.17887257 53.75745204 -12.59200865 24.37141818 -43.74267578 6.72216797 C-72.64001085 -9.07415816 -108.3603846 -15.76124715 -140.57080078 -7.33642578 Z " fill="#F94B4B" transform="translate(366.57080078125,66.33642578125)"/>
<path d="M0 0 C0.66 0 1.32 0 2 0 C-8.72896821 71.95000149 -54.18960871 138.29010113 -100.59521484 192.35693359 C-102.01599182 194.01870437 -103.42502753 195.68983978 -104.83203125 197.36328125 C-110.02204365 203.51380457 -115.33851656 209.519609 -120.8515625 215.3828125 C-121.49620453 216.06874985 -122.14084656 216.75468719 -122.80502319 217.46141052 C-129.6299974 224.70024795 -136.53463487 231.85837476 -143.52880859 238.93383789 C-144.95031287 240.37736174 -146.36549735 241.8271312 -147.77490234 243.2824707 C-149.84882763 245.42278617 -151.94133098 247.5432014 -154.0390625 249.66015625 C-154.66616119 250.3150856 -155.29325989 250.97001495 -155.93936157 251.64479065 C-156.5312326 252.23388718 -157.12310364 252.8229837 -157.73291016 253.42993164 C-158.24504059 253.95236954 -158.75717102 254.47480743 -159.28482056 255.01307678 C-161 256 -161 256 -163.44616699 255.88928223 C-166.45074676 254.84304335 -167.89343201 253.5958656 -170.12841797 251.34155273 C-170.90627655 250.56661972 -171.68413513 249.79168671 -172.48556519 248.99327087 C-173.72634323 247.7262307 -173.72634323 247.7262307 -174.9921875 246.43359375 C-175.85635284 245.56614029 -176.72051819 244.69868683 -177.61087036 243.8049469 C-180.37504534 241.02501094 -183.1247828 238.23123786 -185.875 235.4375 C-187.71918653 233.5818217 -189.56422929 231.72699391 -191.41015625 229.87304688 C-193.18827107 228.08149413 -194.96563887 226.28919959 -196.7421875 224.49609375 C-197.5653244 223.66556992 -198.3884613 222.83504608 -199.23654175 221.97935486 C-204.00731587 217.13049236 -208.56683827 212.15786941 -213 207 C-214.45445517 205.39231627 -215.91220895 203.78760285 -217.375 202.1875 C-222.10615345 196.93862774 -226.55876785 191.49437924 -231 186 C-232.01082767 184.76879913 -233.02260049 183.53837382 -234.03515625 182.30859375 C-262 148.26608539 -262 148.26608539 -262 143 C-260.18242187 142.65388672 -260.18242187 142.65388672 -258.328125 142.30078125 C-204.6477558 131.9320027 -152.04299935 112.3010819 -104.85546875 84.59375 C-102 83 -102 83 -100 83 C-100 82.01 -100 81.02 -100 80 C-97.71170855 78.39005582 -95.48847223 76.99670541 -93.0625 75.625 C-92.42248047 75.25117188 -91.78246094 74.87734375 -91.12304688 74.4921875 C-88.35945033 72.88627667 -85.58034661 71.31506165 -82.77124023 69.79003906 C-77.59795642 66.97623533 -72.73143858 63.9187506 -67.9375 60.5 C-67.21143555 59.98445557 -66.48537109 59.46891113 -65.73730469 58.93774414 C-58.53409968 53.76287563 -51.65149171 48.22603332 -44.84619141 42.54199219 C-43.11543372 41.09641356 -41.37697087 39.66068306 -39.63671875 38.2265625 C-28.68775278 29.14580011 -18.33844691 19.39790711 -8.25 9.375 C-7.76072021 8.89039307 -7.27144043 8.40578613 -6.76733398 7.90649414 C-4.78009572 5.91009322 -2.95831374 3.94282481 -1.296875 1.6640625 C-0.86890625 1.11492187 -0.4409375 0.56578125 0 0 Z " fill="#DC3C46" transform="translate(419,232)"/>
<path d="M0 0 C21.12 0 42.24 0 64 0 C64 7.92 64 15.84 64 24 C70.22209536 23.88224043 70.22209536 23.88224043 76.44335938 23.72973633 C85.3111227 23.64585696 91.72141314 25.8906912 98.234375 32.0703125 C104.93423947 39.39273075 104.37251787 46.31453531 104 56 C109.28 56 114.56 56 120 56 C120 61.28 120 66.56 120 72 C114.72 72 109.44 72 104 72 C104.02356567 75.32324341 104.02356567 75.32324341 104.04760742 78.71362305 C104.09734093 86.03775307 104.13046401 93.36189061 104.15543652 100.68614483 C104.17108517 105.12638476 104.19230877 109.56645152 104.22631836 114.0065918 C104.25894044 118.29246025 104.27685904 122.57816224 104.28463173 126.86414528 C104.29017013 128.49840731 104.30098535 130.13266035 104.31719017 131.76685143 C104.33900272 134.05790186 104.34196539 136.34826654 104.34057617 138.6394043 C104.35056892 140.59465279 104.35056892 140.59465279 104.36076355 142.58940125 C103.9739526 146.24624784 103.27185812 148.13332313 101 151 C98 152 98 152 88 152 C88 159.92 88 167.84 88 176 C77.44 176 66.88 176 56 176 C56 168.08 56 160.16 56 152 C40.16 152 24.32 152 8 152 C8 159.92 8 167.84 8 176 C-2.56 176 -13.12 176 -24 176 C-24 168.08 -24 160.16 -24 152 C-27.63 152 -31.26 152 -35 152 C-39 149 -39 149 -40 146 C-40.09014813 143.62355983 -40.11756299 141.24460105 -40.11352539 138.86645508 C-40.11367142 138.14425278 -40.11381744 137.42205048 -40.1139679 136.67796326 C-40.11327145 134.29178866 -40.1054916 131.90569221 -40.09765625 129.51953125 C-40.09579112 127.8647211 -40.09436766 126.20991039 -40.09336853 124.55509949 C-40.08955085 120.20018997 -40.07972695 115.84531382 -40.06866455 111.49041748 C-40.05843433 107.04635062 -40.05386745 102.60227837 -40.04882812 98.15820312 C-40.03810402 89.43878507 -40.02051327 80.71940053 -40 72 C-45.28 72 -50.56 72 -56 72 C-56 66.72 -56 61.44 -56 56 C-50.72 56 -45.44 56 -40 56 C-40.12375 52.7825 -40.12375 52.7825 -40.25 49.5 C-40.21104498 41.75574155 -39.26058944 37.40658598 -33.90625 31.8125 C-28.52747524 26.79231022 -24.26175391 23.7162368 -16.69921875 23.8046875 C-15.37796997 23.81218018 -15.37796997 23.81218018 -14.0300293 23.81982422 C-12.37547729 23.84713623 -12.37547729 23.84713623 -10.6875 23.875 C-7.160625 23.91625 -3.63375 23.9575 0 24 C0 16.08 0 8.16 0 0 Z " fill="#AD2A37" transform="translate(224,96)"/>
<path d="M0 0 C1.10055851 0.00106876 1.10055851 0.00106876 2.22335052 0.00215912 C3.07282761 -0.00904968 3.92230469 -0.02025848 4.7975235 -0.03180695 C5.71611649 -0.0185437 6.63470947 -0.00528046 7.58113861 0.0083847 C8.55894791 0.00283569 9.5367572 -0.00271332 10.54419708 -0.00843048 C13.77250609 -0.02022966 16.99941239 0.00405216 20.22762299 0.02986908 C22.47294297 0.03158016 24.71826496 0.03151452 26.9635849 0.02974701 C31.66784035 0.03140042 36.37161937 0.05010298 41.07576752 0.08162689 C47.10517868 0.12130411 53.13396573 0.12567216 59.16348267 0.11816406 C63.79947882 0.11509424 68.4353347 0.12721542 73.07129669 0.14429474 C75.29444244 0.1513251 77.5176041 0.15444923 79.7407608 0.1536026 C82.8480018 0.15540068 85.95449559 0.17678417 89.06160736 0.2036972 C89.98020035 0.2007666 90.89879333 0.197836 91.84522247 0.19481659 C96.63500432 0.25881247 99.95717624 0.45954376 103.82137299 3.62361908 C111.72355271 19.42797853 104.82137299 38.95380804 104.82137299 56.62361908 C67.86137299 56.62361908 30.90137299 56.62361908 -7.17862701 56.62361908 C-7.17862701 2.05483947 -7.17862701 2.05483947 0 0 Z " fill="#EDEDED" transform="translate(207.17862701416016,135.37638092041016)"/>
<path d="M0 0 C4.08998175 1.80720124 6.66247347 4.19069751 9 8 C9.62819266 13.0255413 9.03320735 15.95572354 6 20 C3.24705395 23.21177039 0.96958591 23.86947882 -3.25 24.4375 C-8.1843364 23.86182742 -10.79803186 21.71753928 -14 18 C-15.23534045 14.29397865 -15.45528745 11.90246386 -15 8 C-10.91704021 1.64314568 -7.65816344 -0.51919752 0 0 Z " fill="#ECE9EA" transform="translate(303,208)"/>
<path d="M0 0 C4.08998175 1.80720124 6.66247347 4.19069751 9 8 C9.62819266 13.0255413 9.03320735 15.95572354 6 20 C3.24705395 23.21177039 0.96958591 23.86947882 -3.25 24.4375 C-8.1843364 23.86182742 -10.79803186 21.71753928 -14 18 C-15.23534045 14.29397865 -15.45528745 11.90246386 -15 8 C-10.91704021 1.64314568 -7.65816344 -0.51919752 0 0 Z " fill="#ECE9EA" transform="translate(215,208)"/>
<path d="M0 0 C0 0.66 0 1.32 0 2 C-1.76371818 3.03307771 -3.53625033 4.05112049 -5.3125 5.0625 C-6.79169922 5.91521484 -6.79169922 5.91521484 -8.30078125 6.78515625 C-11 8 -11 8 -14 7 C-11.725306 4.44736912 -9.56797307 3.15855185 -6.4375 1.8125 C-5.65246094 1.46832031 -4.86742187 1.12414062 -4.05859375 0.76953125 C-2 0 -2 0 0 0 Z " fill="#F65354" transform="translate(319,313)"/>
<path d="M0 0 C-1.33332095 3.99996286 -3.4957827 4.83782337 -7 7 C-7.66 6.67 -8.32 6.34 -9 6 C-7.8803014 4.99406757 -6.7540588 3.9954151 -5.625 3 C-4.68527344 2.1646875 -4.68527344 2.1646875 -3.7265625 1.3125 C-2 0 -2 0 0 0 Z " fill="#F85555" transform="translate(347,294)"/>
</svg>
